<svg width="303" height="816" viewBox="0 0 303 816" fill="none" xmlns="http://www.w3.org/2000/svg">
<path d="M226.875 1H280C292.15 1 302 10.8497 302 23L302 741.762C302 753.912 292.15 763.762 280 763.762H106.639C94.4887 763.762 84.6389 773.611 84.6389 785.762V792.56C84.6389 804.789 74.6667 814.671 62.4386 814.56L22.7997 814.199C10.7281 814.089 1 804.272 1 792.199V56.8837C1 44.6768 10.9382 34.8037 23.1448 34.8841L99.3859 35.3861C108.925 35.4489 116.692 27.733 116.692 18.1932C116.692 8.69766 124.39 1 133.885 1H226.875Z" fill="url(#paint0_linear_302_406)" stroke="url(#paint1_linear_302_406)"/>
<defs>
<linearGradient id="paint0_linear_302_406" x1="1827.03" y1="341.472" x2="-151.996" y2="786.082" gradientUnits="userSpaceOnUse">
<stop stop-color="#282828" stop-opacity="0"/>
<stop offset="1" stop-color="#8E8E8E" stop-opacity="0.5"/>
</linearGradient>
<linearGradient id="paint1_linear_302_406" x1="822.364" y1="-154.384" x2="822.364" y2="1039.94" gradientUnits="userSpaceOnUse">
<stop stop-color="white"/>
<stop offset="0.25" stop-color="#CDCDCD"/>
<stop offset="0.5" stop-color="white"/>
<stop offset="0.75" stop-color="#A1A1A1"/>
<stop offset="0.97" stop-color="white"/>
</linearGradient>
</defs>
</svg>
