<svg width="75" height="75" viewBox="0 0 75 75" fill="none" xmlns="http://www.w3.org/2000/svg">
<circle cx="37.3196" cy="37.3191" r="26.5" transform="rotate(28.6552 37.3196 37.3191)" stroke="#C3C3C3" stroke-width="2"/>
<path d="M22 35.5C21.1716 35.5 20.5 36.1716 20.5 37C20.5 37.8284 21.1716 38.5 22 38.5L22 35.5ZM53.2813 38.0607C53.8671 37.4749 53.8671 36.5251 53.2813 35.9393L43.7354 26.3934C43.1496 25.8076 42.1998 25.8076 41.614 26.3934C41.0283 26.9792 41.0283 27.9289 41.614 28.5147L50.0993 37L41.614 45.4853C41.0283 46.0711 41.0283 47.0208 41.614 47.6066C42.1998 48.1924 43.1496 48.1924 43.7354 47.6066L53.2813 38.0607ZM22 38.5L52.2206 38.5L52.2206 35.5L22 35.5L22 38.5Z" fill="#C3C3C3"/>
</svg>
