<svg width="75" height="75" viewBox="0 0 75 75" fill="none" xmlns="http://www.w3.org/2000/svg">
<circle cx="27.5" cy="27.5" r="26.5" transform="matrix(-0.877521 0.479537 0.479537 0.877521 48.2637 0)" stroke="#C3C3C3" stroke-width="2"/>
<path d="M52.6387 35.5C53.4671 35.5 54.1387 36.1716 54.1387 37C54.1387 37.8284 53.4671 38.5 52.6387 38.5L52.6387 35.5ZM21.3574 38.0607C20.7716 37.4749 20.7716 36.5251 21.3574 35.9393L30.9033 26.3934C31.4891 25.8076 32.4388 25.8076 33.0246 26.3934C33.6104 26.9792 33.6104 27.9289 33.0246 28.5147L24.5394 37L33.0246 45.4853C33.6104 46.0711 33.6104 47.0208 33.0246 47.6066C32.4388 48.1924 31.4891 48.1924 30.9033 47.6066L21.3574 38.0607ZM52.6387 38.5L22.418 38.5L22.418 35.5L52.6387 35.5L52.6387 38.5Z" fill="#C3C3C3"/>
</svg>
