<svg width="26" height="26" viewBox="0 0 26 26" fill="none" xmlns="http://www.w3.org/2000/svg">
<path d="M15.1667 1.08334C10.4 1.08334 6.5 4.98334 6.5 9.75001C6.5 15.6 14.0833 22.2083 14.4083 22.5333C14.625 22.6417 14.95 22.75 15.1667 22.75C15.3833 22.75 15.7083 22.6417 15.925 22.5333C16.25 22.2083 23.8333 15.6 23.8333 9.75001C23.8333 4.98334 19.9333 1.08334 15.1667 1.08334ZM15.1667 20.2583C12.8917 18.0917 8.66667 13.4333 8.66667 9.75001C8.66667 6.17501 11.5917 3.25001 15.1667 3.25001C18.7417 3.25001 21.6667 6.17501 21.6667 9.75001C21.6667 13.325 17.4417 18.0917 15.1667 20.2583ZM15.1667 5.41668C12.7833 5.41668 10.8333 7.36668 10.8333 9.75001C10.8333 12.1333 12.7833 14.0833 15.1667 14.0833C17.55 14.0833 19.5 12.1333 19.5 9.75001C19.5 7.36668 17.55 5.41668 15.1667 5.41668ZM15.1667 11.9167C13.975 11.9167 13 10.9417 13 9.75001C13 8.55834 13.975 7.58334 15.1667 7.58334C16.3583 7.58334 17.3333 8.55834 17.3333 9.75001C17.3333 10.9417 16.3583 11.9167 15.1667 11.9167Z" fill="black"/>
</svg>
