<svg width="26" height="21" viewBox="0 0 26 21" fill="none" xmlns="http://www.w3.org/2000/svg">
<path d="M2.59993 20.8419C1.88493 20.8419 1.27306 20.5871 0.764325 20.0773C0.255593 19.5675 0.000791805 18.954 -7.48606e-05 18.2367V2.60524C-7.48606e-05 1.8888 0.254726 1.2757 0.764325 0.765941C1.27392 0.256182 1.88579 0.000868414 2.59993 0H23.3999C24.1149 0 24.7272 0.255314 25.2368 0.765941C25.7464 1.27657 26.0008 1.88967 25.9999 2.60524V18.2367C25.9999 18.9531 25.7456 19.5667 25.2368 20.0773C24.7281 20.5879 24.1158 20.8428 23.3999 20.8419H2.59993ZM12.9999 11.7236L1.68228 5.05724L2.08752 18.39H23.7058L23.7058 5.32655L12.9999 11.7236ZM12.9999 9.11835L23.7058 2.29874C23.7058 2.29874 10.2104 2.29874 2.08752 2.29874C6.14896 4.84227 12.9999 9.11835 12.9999 9.11835ZM1.68228 5.05724C1.68228 5.05724 2.08752 3.31615 2.08752 2.29874C1.90834 8.40321 2.08752 18.39 2.08752 18.39L1.68228 5.05724Z" fill="black"/>
</svg>
