<svg width="25" height="23" viewBox="0 0 25 23" fill="none" xmlns="http://www.w3.org/2000/svg">
<path d="M17.0933 15.785L17.6443 15.2376L16.3646 13.9519L15.8161 14.4993L17.0933 15.785ZM19.4918 15.008L21.8009 16.2635L22.6649 14.6709L20.357 13.4166L19.4918 15.008ZM22.2444 18.7575L20.5286 20.4648L21.8058 21.7493L23.5216 20.0431L22.2444 18.7575ZM19.4821 21.0134C17.7301 21.1777 13.1988 21.0315 8.29055 16.1523L7.01213 17.4367C12.3675 22.7619 17.4654 23.0229 19.6513 22.8187L19.4821 21.0134ZM8.29055 16.1523C3.61309 11.5002 2.83734 7.58883 2.74068 5.89112L0.930592 5.99383C1.05143 8.13016 2.01205 12.4657 7.01213 17.4367L8.29055 16.1523ZM9.95201 8.68478L10.2988 8.3392L9.0228 7.05474L8.67601 7.39912L9.95201 8.68478ZM10.5743 3.94691L9.0518 1.91208L7.60059 2.99958L9.12309 5.0332L10.5743 3.94691ZM3.92726 1.46862L2.03018 3.35362L3.30859 4.63928L5.20447 2.75428L3.92726 1.46862ZM9.31401 8.04195C8.67359 7.39912 8.67359 7.39912 8.67359 7.40153H8.67118L8.66755 7.40637C8.61013 7.46426 8.55871 7.52782 8.51409 7.59608C8.44884 7.69274 8.37755 7.81962 8.31713 7.98033C8.17005 8.39518 8.13341 8.84116 8.2108 9.27445C8.37272 10.3197 9.09289 11.7008 10.9368 13.535L12.2152 12.2494C10.4885 10.5335 10.0777 9.48953 10.0016 8.99653C9.9653 8.76212 10.0028 8.64612 10.0136 8.61953C10.0209 8.60342 10.0209 8.60101 10.0136 8.61228C10.0029 8.62896 9.99074 8.64472 9.97738 8.65941L9.9653 8.67149L9.95322 8.68237L9.31401 8.04195ZM10.9368 13.535C12.7819 15.3693 14.1703 16.0846 15.2167 16.2441C15.752 16.3263 16.1834 16.261 16.5108 16.139C16.6943 16.0719 16.8656 15.9756 17.0183 15.8538L17.0788 15.7995L17.0872 15.7922L17.0908 15.7886L17.0921 15.7862C17.0921 15.7862 17.0933 15.785 16.4541 15.1421C15.8136 14.4993 15.8173 14.4981 15.8173 14.4981L15.8197 14.4957L15.8221 14.4932L15.8293 14.4872L15.8414 14.4751L15.8873 14.4389C15.8986 14.4316 15.8958 14.4324 15.8789 14.4413C15.8487 14.4522 15.7303 14.4896 15.4922 14.4534C14.992 14.376 13.9407 13.9652 12.2152 12.2494L10.9368 13.535ZM9.0518 1.91087C7.8193 0.267534 5.3978 0.00653386 3.92726 1.46862L5.20447 2.75428C5.8473 2.11508 6.98797 2.18153 7.60059 2.99958L9.0518 1.91087ZM2.74188 5.89233C2.71772 5.47424 2.90984 5.03683 3.30859 4.64049L2.02897 3.35483C1.38009 4.00008 0.868967 4.91358 0.930592 5.99383L2.74188 5.89233ZM20.5286 20.4648C20.1975 20.7959 19.8398 20.982 19.4833 21.0146L19.6513 22.8187C20.5394 22.7353 21.2656 22.2882 21.807 21.7505L20.5286 20.4648ZM10.2988 8.3392C11.489 7.15624 11.5772 5.28695 10.5755 3.94812L9.1243 5.03441C9.61126 5.6857 9.53876 6.53999 9.02159 7.05595L10.2988 8.3392ZM21.8021 16.2647C22.7893 16.8012 22.9428 18.0651 22.2456 18.7587L23.524 20.0431C25.1432 18.4324 24.6441 15.7463 22.6661 14.6721L21.8021 16.2647ZM17.6443 15.2388C18.1083 14.7772 18.855 14.6636 19.493 15.0092L20.3582 13.4178C19.0483 12.7049 17.4243 12.9019 16.3658 13.9531L17.6443 15.2388Z" fill="black"/>
</svg>
