<svg width="27" height="27" viewBox="0 0 27 27" fill="none" xmlns="http://www.w3.org/2000/svg">
<circle cx="13.2" cy="13.2" r="12.2" stroke="black" stroke-width="2"/>
<g clip-path="url(#clip0_324_502)">
<path fill-rule="evenodd" clip-rule="evenodd" d="M19.285 14.9924C19.285 14.9924 20.5463 16.2381 20.8583 16.8145C20.8644 16.8228 20.8691 16.832 20.8723 16.8418C20.9995 17.0547 21.0307 17.2217 20.9683 17.3449C20.863 17.5485 20.5065 17.6507 20.3856 17.6592H18.1564C18.0012 17.6592 17.6782 17.6187 17.2851 17.3472C16.9848 17.1374 16.6861 16.7919 16.3967 16.4541C15.9646 15.9526 15.591 15.5174 15.2127 15.5174C15.1649 15.5173 15.1174 15.5252 15.0723 15.5408C14.786 15.6312 14.4225 16.0392 14.4225 17.1257C14.4225 17.4658 14.1542 17.6592 13.9662 17.6592H12.9452C12.5973 17.6592 10.7862 17.5376 9.18014 15.8442C7.2122 13.7709 5.44472 9.61198 5.42756 9.57532C5.31758 9.30622 5.54846 9.15958 5.79806 9.15958H8.04914C8.351 9.15958 8.44928 9.3421 8.51792 9.5059C8.59748 9.69388 8.89232 10.4458 9.37592 11.2905C10.159 12.6649 10.6403 13.2242 11.0248 13.2242C11.0971 13.2244 11.1681 13.2055 11.2308 13.1696C11.7331 12.8934 11.6395 11.0994 11.6161 10.7297C11.6161 10.658 11.6153 9.92866 11.3579 9.5761C11.1738 9.32338 10.8603 9.2251 10.6707 9.18922C10.7214 9.1159 10.8291 9.00358 10.9671 8.93728C11.3111 8.76568 11.9328 8.74072 12.5497 8.74072H12.8922C13.5614 8.75008 13.7346 8.79298 13.9779 8.8546C14.4678 8.9716 14.4771 9.28906 14.4342 10.3701C14.4217 10.679 14.4085 11.0269 14.4085 11.4364C14.4085 11.5238 14.4046 11.6213 14.4046 11.7203C14.3898 12.2749 14.3703 12.8997 14.7618 13.1563C14.8126 13.1879 14.8713 13.2047 14.9311 13.2047C15.0668 13.2047 15.4732 13.2047 16.5753 11.3132C17.0589 10.4778 17.4333 9.49264 17.4591 9.41854C17.4809 9.3772 17.5464 9.26098 17.626 9.21418C17.6826 9.18407 17.746 9.16903 17.8101 9.1705H20.4582C20.7468 9.1705 20.9425 9.21418 20.9808 9.32338C21.0447 9.50044 20.9683 10.041 19.7593 11.6759C19.5557 11.9481 19.3771 12.1836 19.2203 12.3896C18.1244 13.8279 18.1244 13.9004 19.285 14.9924Z" fill="black"/>
</g>
<defs>
<clipPath id="clip0_324_502">
<rect width="15.6" height="15.6" fill="white" transform="translate(5.39941 5.39999)"/>
</clipPath>
</defs>
</svg>
